<svg xmlns="http://www.w3.org/2000/svg" viewBox="0 0 410.53 113.91"><defs><style>.cls-1{fill:#0a1e2b;}.cls-2{fill:#d12d1b;}</style></defs><g id="Livello_2" data-name="Livello 2"><g id="Livello_1-2" data-name="Livello 1"><polygon class="cls-1" points="88.05 31.96 64.51 31.96 64.51 51.1 87.72 51.1 87.72 62.1 64.51 62.1 64.51 93.35 51.2 93.35 51.2 20.85 91.02 20.85 88.05 31.96"/><polygon class="cls-1" points="101.62 93.35 101.62 20.85 141.34 20.85 138.36 31.96 114.93 31.96 114.93 50.77 138.36 50.77 138.36 61.88 114.93 61.88 114.93 82.24 141.99 82.24 141.99 93.35 101.62 93.35"/><path class="cls-1" d="M173.27,32.13h-6.6V54.66h6.71a11.69,11.69,0,0,0,12-11.76c0-5.94-3.85-10.77-12.09-10.77m18.57,61.22c-11.21-18.69-16.26-27.7-19-28.58h-6.16V93.35H153.38V20.92h19.56c18.79,0,25.83,9.34,25.83,20.44,0,9.67-6.6,16.16-13.41,19v.11c3.29,1.87,10.55,14.4,21.65,32.87Z"/><polygon class="cls-2" points="35.48 0 30.5 0 0 113.91 4.99 113.91 4.99 113.91 9.97 113.91 40.47 0 35.48 0"/><polygon class="cls-2" points="251.96 0 246.98 0 216.48 113.91 221.46 113.91 221.47 113.91 226.45 113.91 256.95 0 251.96 0"/><path class="cls-1" d="M267.72,20.87h10.77v3.05H271.6V28.7h6.56v3.05H271.6v8.5h-3.88Z"/><path class="cls-1" d="M281.6,20.87H293v3.05h-7.55V28.7h6.91v3.05h-6.91V37.2h7.61v3H281.6Z"/><path class="cls-1" d="M296.71,20.87h4.19c4.16,0,9.13-.14,9.13,5.25a4.44,4.44,0,0,1-4,4.5v.05c1,.08,1.66,1.14,2,2l3.11,7.58h-4.33l-2.33-6c-.56-1.45-1.06-2-2.7-2h-1.25v8h-3.88Zm3.88,8.27h1.28c1.92,0,4.11-.27,4.11-2.69s-2.17-2.53-4.11-2.53h-1.28Z"/><path class="cls-1" d="M313.67,20.87h4.19c4.17,0,9.14-.14,9.14,5.25a4.45,4.45,0,0,1-4,4.5v.05c1.06.08,1.67,1.14,2.06,2l3.11,7.58h-4.33l-2.34-6c-.55-1.45-1.05-2-2.69-2h-1.25v8h-3.89Zm3.89,8.27h1.28c1.91,0,4.11-.27,4.11-2.69s-2.17-2.53-4.11-2.53h-1.28Z"/><path class="cls-1" d="M339.52,20.54c6.08,0,9.5,4.11,9.5,10s-3.36,10.08-9.5,10.08S330,36.45,330,30.51,333.36,20.54,339.52,20.54Zm0,17c4,0,5.45-3.53,5.45-7s-1.59-6.92-5.45-6.92-5.44,3.5-5.44,6.92S335.55,37.53,339.52,37.53Z"/><path class="cls-1" d="M350.6,20.87h4.17l5,15.22h.05l4.92-15.22h3.86L362,40.25h-4.77Z"/><path class="cls-1" d="M370.76,20.87h3.89V40.25h-3.89Z"/><path class="cls-1" d="M378.81,20.87h11.45v3.05H382.7V28.7h6.92v3.05H382.7V37.2h7.61v3h-11.5Z"/><path class="cls-1" d="M267.72,47.41h11.44v3.06H271.6v4.77h6.92V58.3H271.6v5.44h7.61V66.8H267.72Z"/><path class="cls-1" d="M283.15,47.41h6.22L294,62.1H294l4.61-14.69h6.22V66.8h-3.72v-16h-.06l-5.22,16h-3.72l-5.22-16-.05.06V66.8h-3.73Z"/><path class="cls-1" d="M309,47.41h3.89V66.8H309Z"/><path class="cls-1" d="M317.09,47.41H321V63.74h7.53V66.8H317.09Z"/><path class="cls-1" d="M330.64,47.41h3.88V66.8h-3.88Z"/><path class="cls-1" d="M344.24,47.41h4.39l7.61,19.39h-4.3l-1.67-4.45h-7.86l-1.69,4.45h-4Zm2.14,3.89h-.05l-2.81,8h5.67Z"/><path class="cls-1" d="M267.72,74h4.2c4.16,0,9.13-.14,9.13,5.25a4.44,4.44,0,0,1-4,4.5v.05c1.06.09,1.67,1.14,2.06,2l3.11,7.58h-4.33l-2.34-6c-.55-1.44-1.05-2-2.69-2h-1.25v8h-3.89Zm3.89,8.28h1.28c1.91,0,4.11-.28,4.11-2.7S274.83,77,272.89,77h-1.28Z"/><path class="cls-1" d="M293.57,73.63c6.09,0,9.5,4.11,9.5,10s-3.36,10.08-9.5,10.08-9.49-4.14-9.49-10.08S287.41,73.63,293.57,73.63Zm0,17c4,0,5.45-3.52,5.45-7s-1.59-6.92-5.45-6.92-5.44,3.5-5.44,6.92S289.6,90.62,293.57,90.62Z"/><path class="cls-1" d="M306.62,74h6.22l4.61,14.69h.06L322.12,74h6.22V93.34h-3.72v-16h-.06l-5.22,16h-3.72l-5.22-16,0,.05V93.34h-3.73Z"/><path class="cls-1" d="M338.39,74h4.39l7.61,19.38h-4.31l-1.66-4.44h-7.86l-1.7,4.44h-4Zm2.14,3.89h-.06l-2.8,8h5.66Z"/><path class="cls-1" d="M368,77.71a12.58,12.58,0,0,0-5-1c-4.52,0-7,3.06-7,7s2.44,6.91,6.58,6.91a10.29,10.29,0,0,0,2.55-.28v-5H361V82.24h7.83V92.68a24.63,24.63,0,0,1-6.27,1c-6.28,0-10.64-3.14-10.64-9.69S356,73.63,362.58,73.63a19.14,19.14,0,0,1,5.69.8Z"/><path class="cls-1" d="M372.74,74h4.78l7.38,14.5H385V74h3.72V93.34h-4.75l-7.41-14.49h-.06V93.34h-3.72Z"/><path class="cls-1" d="M398.54,74h4.38l7.61,19.38h-4.3l-1.67-4.44H396.7L395,93.34h-4Zm2.13,3.89h-.05l-2.81,8h5.67Z"/></g></g></svg>